# xmcd
#
# Track frame offsets:
#	150
#	22435
#	43623
#	68215
#	90760
#	105488
#	124970
#	139753
#	159718
#	176718
#	194590
#	209293
#
# Disc length: 3085 seconds
#
# Revision: 1
# Processed by: cddbd v1.5.1PL0 Copyright (c) Steve Scherf et al.
# Submitted via: CDex 1.50Beta5
#
DISCID=ae0c0b0c
DTITLE=サウンドトラック - BLACKJACK Vol.1
DYEAR=1900
DGENRE=Soundtrack
TTITLE0=B.G.M.1〜キマイラの男〜
TTITLE1=B.G.M.2〜キマイラの男〜
TTITLE2=B.G.M.3〜キマイラの男〜
TTITLE3=B.G.M.4〜キマイラの男〜
TTITLE4=マリアの決断
TTITLE5=ブラック クイーン
TTITLE6=空からきたこども
TTITLE7=シャチの詩
TTITLE8=B.J.入院す
TTITLE9=ピノコ
TTITLE10=座頭医師
TTITLE11=ブラック・ジャック
EXTD=
EXTT0=
EXTT1=
EXTT2=
EXTT3=
EXTT4=
EXTT5=
EXTT6=
EXTT7=
EXTT8=
EXTT9=
EXTT10=
EXTT11=
PLAYORDER=
